<svg xmlns="http://www.w3.org/2000/svg" xmlns:xlink="http://www.w3.org/1999/xlink" width="500" zoomAndPan="magnify" viewBox="0 0 375 374.999991" height="500" preserveAspectRatio="xMidYMid meet" version="1.0"><defs><g/><clipPath id="d6fc7bc5a1"><path d="M 186 151 L 267.792969 151 L 267.792969 225 L 186 225 Z M 186 151 " clip-rule="nonzero"/></clipPath></defs><path fill="#ffffff" d="M 219.765625 130.832031 L 212.464844 123.546875 C 190.410156 101.53125 167.222656 110.308594 166.929688 110.429688 C 166.929688 110.429688 175.230469 112.339844 182.054688 118.066406 C 187.566406 122.695312 187.878906 131.070312 182.785156 136.15625 L 184.101562 137.46875 L 140.230469 181.257812 L 151.296875 192.304688 L 195.171875 148.515625 L 196.488281 149.828125 L 201.949219 144.375 C 202.769531 145.191406 203.511719 145.914062 204.128906 146.507812 C 205.144531 147.488281 206.761719 147.472656 207.765625 146.476562 L 219.765625 134.496094 C 220.78125 133.484375 220.78125 131.84375 219.765625 130.832031 Z M 229.019531 140.070312 L 225.421875 136.476562 C 224.070312 135.128906 221.882812 135.128906 220.535156 136.476562 L 209.914062 147.078125 C 208.5625 148.425781 208.5625 150.609375 209.914062 151.957031 L 213.507812 155.546875 C 214.859375 156.894531 217.050781 156.894531 218.398438 155.546875 L 229.019531 144.945312 C 230.367188 143.601562 230.367188 141.414062 229.019531 140.070312 Z M 111.589844 207.308594 C 107.480469 210.992188 107.304688 217.363281 111.214844 221.265625 C 115.121094 225.164062 121.507812 224.992188 125.199219 220.886719 L 149.945312 194.046875 L 138.480469 182.605469 L 111.589844 207.308594 " fill-opacity="1" fill-rule="nonzero"/><path fill="#f68712" d="M 180.671875 208.050781 L 168.753906 208.050781 L 168.753906 196.15625 L 180.671875 196.15625 L 180.671875 208.050781 " fill-opacity="1" fill-rule="nonzero"/><path fill="#f68712" d="M 198.222656 208.050781 L 186.300781 208.050781 L 186.300781 196.15625 L 198.222656 196.15625 L 198.222656 208.050781 " fill-opacity="1" fill-rule="nonzero"/><path fill="#f68712" d="M 180.671875 224.082031 L 168.753906 224.082031 L 168.753906 212.183594 L 180.671875 212.183594 L 180.671875 224.082031 " fill-opacity="1" fill-rule="nonzero"/><path fill="#f68712" d="M 198.222656 224.082031 L 186.300781 224.082031 L 186.300781 212.183594 L 198.222656 212.183594 L 198.222656 224.082031 " fill-opacity="1" fill-rule="nonzero"/><g clip-path="url(#d6fc7bc5a1)"><path fill="#f68712" d="M 238.867188 195.210938 L 238.867188 178.796875 L 242.09375 176.496094 L 227.097656 167.425781 L 227.097656 187.726562 L 225.65625 186.289062 L 225.636719 182.003906 L 194.941406 151.371094 L 186.398438 159.902344 L 250.703125 224.082031 L 267.792969 224.082031 L 238.867188 195.210938 " fill-opacity="1" fill-rule="nonzero"/></g><g fill="#f68712" fill-opacity="1"><g transform="translate(98.265656, 246.764398)"><g><path d="M 26.4375 0 L 20.921875 0 L 20.921875 -8.375 L 16 0 L 11.890625 0 L 6.96875 -8.375 L 6.96875 0 L 1.46875 0 L 1.46875 -13.140625 L 8.015625 -13.140625 L 13.953125 -3.75 L 19.890625 -13.140625 L 26.4375 -13.140625 Z M 26.4375 0 "/></g></g></g><g fill="#f68712" fill-opacity="1"><g transform="translate(126.69721, 246.764398)"><g><path d="M 17.28125 0 L 1.46875 0 L 1.46875 -13.140625 L 16.5625 -13.140625 L 16.5625 -9.890625 L 6.96875 -9.890625 L 6.96875 -7.828125 L 15.078125 -7.828125 L 15.078125 -5.296875 L 6.96875 -5.296875 L 6.96875 -3.25 L 17.28125 -3.25 Z M 17.28125 0 "/></g></g></g><g fill="#f68712" fill-opacity="1"><g transform="translate(145.247249, 246.764398)"><g><path d="M 10.25 0 L 1.46875 0 L 1.46875 -13.140625 L 10.25 -13.140625 C 13.84375 -13.140625 16.429688 -12.632812 18.015625 -11.625 C 19.273438 -10.8125 19.992188 -9.707031 20.171875 -8.3125 C 20.253906 -7.707031 20.296875 -7.125 20.296875 -6.5625 C 20.296875 -6.007812 20.253906 -5.425781 20.171875 -4.8125 C 20.097656 -4.207031 19.894531 -3.617188 19.5625 -3.046875 C 19.238281 -2.484375 18.71875 -1.972656 18 -1.515625 C 17.28125 -1.054688 16.296875 -0.6875 15.046875 -0.40625 C 13.804688 -0.132812 12.207031 0 10.25 0 Z M 9.734375 -3.25 C 12.535156 -3.25 14.117188 -3.957031 14.484375 -5.375 C 14.578125 -5.769531 14.625 -6.164062 14.625 -6.5625 C 14.625 -6.96875 14.570312 -7.363281 14.46875 -7.75 C 14.375 -8.144531 14.160156 -8.503906 13.828125 -8.828125 C 13.503906 -9.148438 13.015625 -9.40625 12.359375 -9.59375 C 11.710938 -9.789062 10.835938 -9.890625 9.734375 -9.890625 L 6.96875 -9.890625 L 6.96875 -3.25 Z M 9.734375 -3.25 "/></g></g></g><g fill="#f68712" fill-opacity="1"><g transform="translate(166.807499, 246.764398)"><g><path d="M 22.0625 0 L 16.484375 0 L 15.25 -2.15625 L 6.953125 -2.15625 L 5.71875 0 L 0.140625 0 L 8.546875 -13.125 L 13.65625 -13.125 Z M 13.390625 -5.40625 L 11.109375 -9.390625 L 8.8125 -5.40625 Z M 13.390625 -5.40625 "/></g></g></g><g fill="#f68712" fill-opacity="1"><g transform="translate(189.538891, 246.764398)"><g><path d="M 16.796875 0 L 1.46875 0 L 1.46875 -13.140625 L 6.96875 -13.140625 L 6.96875 -3.25 L 16.796875 -3.25 Z M 16.796875 0 "/></g></g></g><g fill="#f68712" fill-opacity="1"><g transform="translate(207.238031, 246.764398)"><g><path d="M 16.796875 0 L 1.46875 0 L 1.46875 -13.140625 L 6.96875 -13.140625 L 6.96875 -3.25 L 16.796875 -3.25 Z M 16.796875 0 "/></g></g></g><g fill="#f68712" fill-opacity="1"><g transform="translate(224.937164, 246.764398)"><g><path d="M 6.96875 0 L 1.46875 0 L 1.46875 -13.140625 L 6.96875 -13.140625 Z M 6.96875 0 "/></g></g></g><g fill="#f68712" fill-opacity="1"><g transform="translate(233.91677, 246.764398)"><g><path d="M 9.9375 0.28125 C 6.6875 0.28125 4.296875 -0.382812 2.765625 -1.71875 C 1.410156 -2.90625 0.734375 -4.519531 0.734375 -6.5625 C 0.734375 -8.601562 1.410156 -10.210938 2.765625 -11.390625 C 4.296875 -12.734375 6.6875 -13.40625 9.9375 -13.40625 C 13.175781 -13.40625 15.566406 -12.734375 17.109375 -11.390625 C 18.460938 -10.210938 19.140625 -8.601562 19.140625 -6.5625 C 19.140625 -4.519531 18.460938 -2.90625 17.109375 -1.71875 C 15.566406 -0.382812 13.175781 0.28125 9.9375 0.28125 Z M 9.9375 -3.234375 C 11.257812 -3.234375 12.234375 -3.617188 12.859375 -4.390625 C 13.359375 -5.003906 13.609375 -5.726562 13.609375 -6.5625 C 13.609375 -7.394531 13.359375 -8.117188 12.859375 -8.734375 C 12.234375 -9.503906 11.257812 -9.890625 9.9375 -9.890625 C 8.601562 -9.890625 7.625 -9.503906 7 -8.734375 C 6.5 -8.117188 6.25 -7.394531 6.25 -6.5625 C 6.25 -5.726562 6.5 -5.003906 7 -4.390625 C 7.625 -3.617188 8.601562 -3.234375 9.9375 -3.234375 Z M 9.9375 -3.234375 "/></g></g></g><g fill="#f68712" fill-opacity="1"><g transform="translate(254.315015, 246.764398)"><g><path d="M 20.953125 0 L 14.40625 0 L 6.96875 -8.890625 L 6.96875 0 L 1.46875 0 L 1.46875 -13.140625 L 8.015625 -13.140625 L 15.4375 -4.296875 L 15.4375 -13.140625 L 20.953125 -13.140625 Z M 20.953125 0 "/></g></g></g><g fill="#f68712" fill-opacity="1"><g transform="translate(105.181522, 270.083128)"><g><path d="M 7.234375 -12.65625 C 8.117188 -12.65625 8.984375 -12.484375 9.828125 -12.140625 C 10.679688 -11.796875 11.414062 -11.316406 12.03125 -10.703125 L 10.78125 -9.15625 C 10.320312 -9.65625 9.78125 -10.046875 9.15625 -10.328125 C 8.53125 -10.617188 7.898438 -10.765625 7.265625 -10.765625 C 6.003906 -10.765625 4.9375 -10.332031 4.0625 -9.46875 C 3.195312 -8.613281 2.765625 -7.570312 2.765625 -6.34375 C 2.765625 -5.09375 3.195312 -4.035156 4.0625 -3.171875 C 4.9375 -2.316406 6.003906 -1.890625 7.265625 -1.890625 C 8.578125 -1.890625 9.75 -2.390625 10.78125 -3.390625 L 12.046875 -1.984375 C 11.390625 -1.347656 10.628906 -0.84375 9.765625 -0.46875 C 8.910156 -0.09375 8.039062 0.09375 7.15625 0.09375 C 5.3125 0.09375 3.757812 -0.519531 2.5 -1.75 C 1.238281 -2.976562 0.609375 -4.5 0.609375 -6.3125 C 0.609375 -8.101562 1.25 -9.609375 2.53125 -10.828125 C 3.8125 -12.046875 5.378906 -12.65625 7.234375 -12.65625 Z M 7.234375 -12.65625 "/></g></g></g><g fill="#f68712" fill-opacity="1"><g transform="translate(119.329491, 270.083128)"><g><path d="M 2.53125 -10.828125 C 3.820312 -12.046875 5.40625 -12.65625 7.28125 -12.65625 C 9.164062 -12.65625 10.75 -12.046875 12.03125 -10.828125 C 13.320312 -9.609375 13.96875 -8.097656 13.96875 -6.296875 C 13.96875 -4.492188 13.320312 -2.976562 12.03125 -1.75 C 10.75 -0.519531 9.164062 0.09375 7.28125 0.09375 C 5.40625 0.09375 3.820312 -0.519531 2.53125 -1.75 C 1.25 -2.976562 0.609375 -4.492188 0.609375 -6.296875 C 0.609375 -8.097656 1.25 -9.609375 2.53125 -10.828125 Z M 7.3125 -10.75 C 6.0625 -10.75 4.988281 -10.316406 4.09375 -9.453125 C 3.207031 -8.597656 2.765625 -7.546875 2.765625 -6.296875 C 2.765625 -5.046875 3.210938 -3.984375 4.109375 -3.109375 C 5.003906 -2.242188 6.066406 -1.8125 7.296875 -1.8125 C 8.535156 -1.8125 9.59375 -2.242188 10.46875 -3.109375 C 11.351562 -3.984375 11.796875 -5.046875 11.796875 -6.296875 C 11.796875 -7.546875 11.351562 -8.597656 10.46875 -9.453125 C 9.59375 -10.316406 8.539062 -10.75 7.3125 -10.75 Z M 7.3125 -10.75 "/></g></g></g><g fill="#f68712" fill-opacity="1"><g transform="translate(135.511453, 270.083128)"><g><path d="M 12.578125 0 L 10.5 0 L 3.78125 -9.03125 L 3.78125 0 L 1.65625 0 L 1.65625 -12.59375 L 3.75 -12.59375 L 10.5 -3.546875 L 10.5 -12.59375 L 12.578125 -12.59375 Z M 12.578125 0 "/></g></g></g><g fill="#f68712" fill-opacity="1"><g transform="translate(151.369421, 270.083128)"><g><path d="M 5.796875 -12.6875 C 7.429688 -12.6875 8.898438 -12.253906 10.203125 -11.390625 L 9.328125 -9.515625 C 8.035156 -10.296875 6.804688 -10.6875 5.640625 -10.6875 C 5.003906 -10.6875 4.5 -10.570312 4.125 -10.34375 C 3.757812 -10.125 3.578125 -9.800781 3.578125 -9.375 C 3.578125 -8.957031 3.742188 -8.597656 4.078125 -8.296875 C 4.421875 -8.003906 4.84375 -7.789062 5.34375 -7.65625 C 5.851562 -7.519531 6.398438 -7.347656 6.984375 -7.140625 C 7.566406 -6.929688 8.109375 -6.707031 8.609375 -6.46875 C 9.117188 -6.238281 9.539062 -5.875 9.875 -5.375 C 10.207031 -4.875 10.375 -4.269531 10.375 -3.5625 C 10.375 -2.457031 9.929688 -1.570312 9.046875 -0.90625 C 8.160156 -0.25 7.015625 0.078125 5.609375 0.078125 C 4.648438 0.078125 3.71875 -0.101562 2.8125 -0.46875 C 1.914062 -0.832031 1.132812 -1.316406 0.46875 -1.921875 L 1.390625 -3.765625 C 2.023438 -3.171875 2.722656 -2.710938 3.484375 -2.390625 C 4.242188 -2.078125 4.96875 -1.921875 5.65625 -1.921875 C 6.394531 -1.921875 6.972656 -2.054688 7.390625 -2.328125 C 7.804688 -2.597656 8.015625 -2.972656 8.015625 -3.453125 C 8.015625 -3.890625 7.84375 -4.253906 7.5 -4.546875 C 7.164062 -4.835938 6.742188 -5.050781 6.234375 -5.1875 C 5.734375 -5.332031 5.1875 -5.503906 4.59375 -5.703125 C 4.007812 -5.898438 3.46875 -6.109375 2.96875 -6.328125 C 2.46875 -6.546875 2.046875 -6.898438 1.703125 -7.390625 C 1.367188 -7.890625 1.203125 -8.488281 1.203125 -9.1875 C 1.203125 -10.25 1.617188 -11.097656 2.453125 -11.734375 C 3.296875 -12.367188 4.410156 -12.6875 5.796875 -12.6875 Z M 5.796875 -12.6875 "/></g></g></g><g fill="#f68712" fill-opacity="1"><g transform="translate(164.167399, 270.083128)"><g><path d="M 10.265625 -10.6875 L 6.265625 -10.6875 L 6.265625 0 L 4.140625 0 L 4.140625 -10.6875 L 0.15625 -10.6875 L 0.15625 -12.59375 L 10.265625 -12.59375 Z M 10.265625 -10.6875 "/></g></g></g><g fill="#f68712" fill-opacity="1"><g transform="translate(176.19138, 270.083128)"><g><path d="M 9.640625 0 L 7.34375 -3.8125 C 7.21875 -3.800781 7.023438 -3.796875 6.765625 -3.796875 L 3.78125 -3.796875 L 3.78125 0 L 1.65625 0 L 1.65625 -12.59375 L 6.765625 -12.59375 C 8.378906 -12.59375 9.628906 -12.21875 10.515625 -11.46875 C 11.398438 -10.71875 11.84375 -9.660156 11.84375 -8.296875 C 11.84375 -7.285156 11.617188 -6.429688 11.171875 -5.734375 C 10.722656 -5.046875 10.078125 -4.539062 9.234375 -4.21875 L 12.0625 0 Z M 3.78125 -5.703125 L 6.765625 -5.703125 C 8.804688 -5.703125 9.828125 -6.550781 9.828125 -8.25 C 9.828125 -9.875 8.804688 -10.6875 6.765625 -10.6875 L 3.78125 -10.6875 Z M 3.78125 -5.703125 "/></g></g></g><g fill="#f68712" fill-opacity="1"><g transform="translate(190.807343, 270.083128)"><g><path d="M 12.359375 -12.59375 L 12.359375 -5.21875 C 12.359375 -3.570312 11.875 -2.273438 10.90625 -1.328125 C 9.9375 -0.378906 8.597656 0.09375 6.890625 0.09375 C 5.191406 0.09375 3.851562 -0.378906 2.875 -1.328125 C 1.894531 -2.273438 1.40625 -3.570312 1.40625 -5.21875 L 1.40625 -12.59375 L 3.53125 -12.59375 L 3.53125 -5.21875 C 3.53125 -4.164062 3.832031 -3.332031 4.4375 -2.71875 C 5.039062 -2.113281 5.863281 -1.8125 6.90625 -1.8125 C 7.9375 -1.8125 8.75 -2.113281 9.34375 -2.71875 C 9.9375 -3.320312 10.234375 -4.15625 10.234375 -5.21875 L 10.234375 -12.59375 Z M 12.359375 -12.59375 "/></g></g></g><g fill="#f68712" fill-opacity="1"><g transform="translate(206.16132, 270.083128)"><g><path d="M 7.234375 -12.65625 C 8.117188 -12.65625 8.984375 -12.484375 9.828125 -12.140625 C 10.679688 -11.796875 11.414062 -11.316406 12.03125 -10.703125 L 10.78125 -9.15625 C 10.320312 -9.65625 9.78125 -10.046875 9.15625 -10.328125 C 8.53125 -10.617188 7.898438 -10.765625 7.265625 -10.765625 C 6.003906 -10.765625 4.9375 -10.332031 4.0625 -9.46875 C 3.195312 -8.613281 2.765625 -7.570312 2.765625 -6.34375 C 2.765625 -5.09375 3.195312 -4.035156 4.0625 -3.171875 C 4.9375 -2.316406 6.003906 -1.890625 7.265625 -1.890625 C 8.578125 -1.890625 9.75 -2.390625 10.78125 -3.390625 L 12.046875 -1.984375 C 11.390625 -1.347656 10.628906 -0.84375 9.765625 -0.46875 C 8.910156 -0.09375 8.039062 0.09375 7.15625 0.09375 C 5.3125 0.09375 3.757812 -0.519531 2.5 -1.75 C 1.238281 -2.976562 0.609375 -4.5 0.609375 -6.3125 C 0.609375 -8.101562 1.25 -9.609375 2.53125 -10.828125 C 3.8125 -12.046875 5.378906 -12.65625 7.234375 -12.65625 Z M 7.234375 -12.65625 "/></g></g></g><g fill="#f68712" fill-opacity="1"><g transform="translate(220.309284, 270.083128)"><g><path d="M 10.265625 -10.6875 L 6.265625 -10.6875 L 6.265625 0 L 4.140625 0 L 4.140625 -10.6875 L 0.15625 -10.6875 L 0.15625 -12.59375 L 10.265625 -12.59375 Z M 10.265625 -10.6875 "/></g></g></g><g fill="#f68712" fill-opacity="1"><g transform="translate(232.33327, 270.083128)"><g><path d="M 3.78125 0 L 1.65625 0 L 1.65625 -12.59375 L 3.78125 -12.59375 Z M 3.78125 0 "/></g></g></g><g fill="#f68712" fill-opacity="1"><g transform="translate(239.371271, 270.083128)"><g><path d="M 2.53125 -10.828125 C 3.820312 -12.046875 5.40625 -12.65625 7.28125 -12.65625 C 9.164062 -12.65625 10.75 -12.046875 12.03125 -10.828125 C 13.320312 -9.609375 13.96875 -8.097656 13.96875 -6.296875 C 13.96875 -4.492188 13.320312 -2.976562 12.03125 -1.75 C 10.75 -0.519531 9.164062 0.09375 7.28125 0.09375 C 5.40625 0.09375 3.820312 -0.519531 2.53125 -1.75 C 1.25 -2.976562 0.609375 -4.492188 0.609375 -6.296875 C 0.609375 -8.097656 1.25 -9.609375 2.53125 -10.828125 Z M 7.3125 -10.75 C 6.0625 -10.75 4.988281 -10.316406 4.09375 -9.453125 C 3.207031 -8.597656 2.765625 -7.546875 2.765625 -6.296875 C 2.765625 -5.046875 3.210938 -3.984375 4.109375 -3.109375 C 5.003906 -2.242188 6.066406 -1.8125 7.296875 -1.8125 C 8.535156 -1.8125 9.59375 -2.242188 10.46875 -3.109375 C 11.351562 -3.984375 11.796875 -5.046875 11.796875 -6.296875 C 11.796875 -7.546875 11.351562 -8.597656 10.46875 -9.453125 C 9.59375 -10.316406 8.539062 -10.75 7.3125 -10.75 Z M 7.3125 -10.75 "/></g></g></g><g fill="#f68712" fill-opacity="1"><g transform="translate(255.553239, 270.083128)"><g><path d="M 12.578125 0 L 10.5 0 L 3.78125 -9.03125 L 3.78125 0 L 1.65625 0 L 1.65625 -12.59375 L 3.75 -12.59375 L 10.5 -3.546875 L 10.5 -12.59375 L 12.578125 -12.59375 Z M 12.578125 0 "/></g></g></g></svg>