<svg width="248" height="228" viewBox="0 0 248 228" fill="none" xmlns="http://www.w3.org/2000/svg">
<path d="M171.021 35.4427L161.286 25.7292C131.88 -3.62499 100.964 8.07813 100.573 8.23959C100.573 8.23959 111.641 10.7865 120.74 18.4219C128.089 24.5938 128.505 35.7604 121.714 42.5417L123.469 44.2917L64.974 102.677L79.7292 117.406L138.229 59.0208L139.984 60.7708L147.266 53.5C148.359 54.5886 149.349 55.5521 150.172 56.3438C151.526 57.6511 153.682 57.6302 155.021 56.3021L171.021 40.3281C172.375 38.9792 172.375 36.7917 171.021 35.4427ZM183.359 47.7604L178.562 42.9688C176.76 41.1719 173.844 41.1719 172.047 42.9688L157.885 57.1042C156.083 58.9011 156.083 61.8125 157.885 63.6094L162.677 68.3958C164.479 70.1927 167.401 70.1927 169.198 68.3958L183.359 54.2604C185.156 52.4688 185.156 49.5521 183.359 47.7604ZM26.7865 137.411C21.3073 142.323 21.0729 150.818 26.2865 156.021C31.4948 161.219 40.0104 160.99 44.9323 155.516L77.9271 119.729L62.6406 104.474L26.7865 137.411Z" fill="#03466E"/>
<path d="M118.896 138.401H103.005V122.542H118.896V138.401Z" fill="#444142"/>
<path d="M142.297 138.401H126.401V122.542H142.297V138.401Z" fill="#444142"/>
<path d="M118.896 159.776H103.005V143.911H118.896V159.776Z" fill="#444142"/>
<path d="M142.297 159.776H126.401V143.911H142.297V159.776Z" fill="#444142"/>
<mask id="mask0_1_4" style="mask-type:luminance" maskUnits="userSpaceOnUse" x="126" y="62" width="110" height="99">
<path d="M126 62.3333H235.057V161H126V62.3333Z" fill="white"/>
</mask>
<g mask="url(#mask0_1_4)">
<path d="M196.49 121.281V99.3958L200.792 96.3281L180.797 84.2344V111.302L178.875 109.385L178.849 103.672L137.922 62.8281L126.531 74.2031L212.271 159.776H235.057L196.49 121.281Z" fill="#F68712"/>
</g>
<path d="M40.8177 190.019H33.4636V178.853L26.9011 190.019H21.4219L14.8594 178.853V190.019H7.52608V172.498H16.2552L24.1719 185.019L32.0886 172.498H40.8177V190.019Z" fill="black"/>
<path d="M66.5182 190.019H45.4348V172.498H65.5598V176.832H52.7682V179.582H63.5807V182.957H52.7682V185.686H66.5182V190.019Z" fill="black"/>
<path d="M81.8765 190.019H70.1682V172.498H81.8765C86.6682 172.498 90.1161 173.175 92.2307 174.519C93.9078 175.603 94.8661 177.077 95.1057 178.936C95.2151 179.743 95.2724 180.519 95.2724 181.269C95.2724 182.009 95.2151 182.785 95.1057 183.603C95.0068 184.41 94.7359 185.196 94.2932 185.957C93.8609 186.707 93.1682 187.389 92.2099 187.998C91.2515 188.613 89.939 189.103 88.2724 189.478C86.6161 189.842 84.4859 190.019 81.8765 190.019ZM81.189 185.686C84.9234 185.686 87.0328 184.743 87.5224 182.853C87.6474 182.327 87.7099 181.8 87.7099 181.269C87.7099 180.728 87.637 180.202 87.5015 179.686C87.3765 179.16 87.0901 178.681 86.6474 178.248C86.2151 177.821 85.564 177.478 84.689 177.228C83.8245 176.967 82.6578 176.832 81.189 176.832H77.5015V185.686H81.189Z" fill="black"/>
<path d="M126.374 190.019H118.936L117.29 187.144H106.228L104.582 190.019H97.1444L108.353 172.519H115.165L126.374 190.019ZM114.811 182.811L111.769 177.498L108.707 182.811H114.811Z" fill="black"/>
<path d="M149.661 190.019H129.224V172.498H136.557V185.686H149.661V190.019Z" fill="black"/>
<path d="M173.26 190.019H152.823V172.498H160.156V185.686H173.26V190.019Z" fill="black"/>
<path d="M183.755 190.019H176.421V172.498H183.755V190.019Z" fill="black"/>
<path d="M199.686 190.394C195.353 190.394 192.165 189.509 190.123 187.728C188.316 186.144 187.415 183.993 187.415 181.269C187.415 178.55 188.316 176.405 190.123 174.832C192.165 173.04 195.353 172.144 199.686 172.144C204.004 172.144 207.191 173.04 209.248 174.832C211.05 176.405 211.957 178.55 211.957 181.269C211.957 183.993 211.05 186.144 209.248 187.728C207.191 189.509 204.004 190.394 199.686 190.394ZM199.686 185.707C201.446 185.707 202.748 185.196 203.582 184.165C204.248 183.347 204.582 182.384 204.582 181.269C204.582 180.16 204.248 179.196 203.582 178.373C202.748 177.347 201.446 176.832 199.686 176.832C197.905 176.832 196.603 177.347 195.769 178.373C195.103 179.196 194.769 180.16 194.769 181.269C194.769 182.384 195.103 183.347 195.769 184.165C196.603 185.196 197.905 185.707 199.686 185.707Z" fill="black"/>
<path d="M241.571 190.019H232.842L222.925 178.165V190.019H215.592V172.498H224.321L234.217 184.29V172.498H241.571V190.019Z" fill="black"/>
<path d="M27.8879 204.236C29.0649 204.236 30.2212 204.465 31.3462 204.923C32.4816 205.382 33.4608 206.022 34.2837 206.84L32.617 208.902C32.0024 208.236 31.2837 207.715 30.4504 207.34C29.617 206.955 28.7733 206.757 27.9295 206.757C26.2472 206.757 24.8254 207.335 23.6587 208.486C22.5024 209.626 21.9295 211.017 21.9295 212.652C21.9295 214.319 22.5024 215.731 23.6587 216.882C24.8254 218.022 26.2472 218.59 27.9295 218.59C29.6795 218.59 31.242 217.923 32.617 216.59L34.3045 218.465C33.4295 219.314 32.4139 219.986 31.2629 220.486C30.1222 220.986 28.9608 221.236 27.7837 221.236C25.3254 221.236 23.2524 220.418 21.5754 218.777C19.8931 217.142 19.0545 215.111 19.0545 212.694C19.0545 210.309 19.9087 208.298 21.617 206.673C23.3254 205.048 25.4139 204.236 27.8879 204.236Z" fill="black"/>
<path d="M40.481 206.673C42.1997 205.048 44.3143 204.236 46.8143 204.236C49.3247 204.236 51.4393 205.048 53.1477 206.673C54.8664 208.298 55.731 210.314 55.731 212.715C55.731 215.121 54.8664 217.142 53.1477 218.777C51.4393 220.418 49.3247 221.236 46.8143 221.236C44.3143 221.236 42.1997 220.418 40.481 218.777C38.7727 217.142 37.9185 215.121 37.9185 212.715C37.9185 210.314 38.7727 208.298 40.481 206.673ZM46.856 206.777C45.1893 206.777 43.757 207.356 42.5643 208.507C41.382 209.647 40.7935 211.048 40.7935 212.715C40.7935 214.382 41.3872 215.798 42.5852 216.965C43.7779 218.121 45.1945 218.694 46.8352 218.694C48.4862 218.694 49.8977 218.121 51.0643 216.965C52.2414 215.798 52.8352 214.382 52.8352 212.715C52.8352 211.048 52.2414 209.647 51.0643 208.507C49.8977 207.356 48.4914 206.777 46.856 206.777Z" fill="black"/>
<path d="M75.4528 221.111H72.6819L63.7236 209.069V221.111H60.8903V204.319H63.6819L72.6819 216.382V204.319H75.4528V221.111Z" fill="black"/>
<path d="M87.555 204.194C89.7321 204.194 91.6905 204.772 93.43 205.923L92.2634 208.423C90.5394 207.382 88.8988 206.861 87.3467 206.861C86.4978 206.861 85.8259 207.017 85.3259 207.319C84.8363 207.611 84.5967 208.043 84.5967 208.611C84.5967 209.168 84.8155 209.647 85.2634 210.048C85.7217 210.439 86.2842 210.725 86.9509 210.902C87.628 211.085 88.3571 211.314 89.1384 211.59C89.9144 211.871 90.6384 212.168 91.305 212.486C91.9821 212.793 92.5446 213.277 92.9925 213.944C93.4353 214.611 93.6592 215.418 93.6592 216.361C93.6592 217.835 93.0655 219.017 91.8884 219.902C90.7061 220.777 89.18 221.215 87.305 221.215C86.0238 221.215 84.7842 220.975 83.5759 220.486C82.378 220.001 81.3363 219.356 80.4509 218.548L81.68 216.09C82.5238 216.882 83.4561 217.496 84.4717 217.923C85.4821 218.34 86.4509 218.548 87.3675 218.548C88.3519 218.548 89.1228 218.371 89.68 218.007C90.2321 217.647 90.5134 217.147 90.5134 216.507C90.5134 215.923 90.2842 215.439 89.8259 215.048C89.378 214.663 88.8155 214.376 88.1384 214.194C87.4717 214.001 86.7425 213.772 85.9509 213.507C85.1696 213.246 84.4509 212.965 83.7842 212.673C83.1175 212.382 82.555 211.913 82.0967 211.257C81.6488 210.59 81.43 209.793 81.43 208.861C81.43 207.444 81.9821 206.314 83.0967 205.465C84.2217 204.621 85.7061 204.194 87.555 204.194Z" fill="black"/>
<path d="M110.577 206.861H105.244V221.111H102.411V206.861H97.0982V204.319H110.577V206.861Z" fill="black"/>
<path d="M125.776 221.111L122.714 216.027C122.547 216.043 122.286 216.048 121.943 216.048H117.964V221.111H115.13V204.319H121.943C124.094 204.319 125.76 204.819 126.943 205.819C128.12 206.819 128.714 208.231 128.714 210.048C128.714 211.397 128.411 212.538 127.818 213.465C127.219 214.382 126.359 215.059 125.234 215.486L129.005 221.111H125.776ZM117.964 213.507H121.943C124.661 213.507 126.026 212.376 126.026 210.111C126.026 207.944 124.661 206.861 121.943 206.861H117.964V213.507Z" fill="black"/>
<path d="M148.889 204.319V214.152C148.889 216.35 148.243 218.08 146.951 219.34C145.66 220.606 143.873 221.236 141.597 221.236C139.332 221.236 137.545 220.606 136.243 219.34C134.936 218.08 134.285 216.35 134.285 214.152V204.319H137.118V214.152C137.118 215.559 137.519 216.668 138.326 217.486C139.129 218.293 140.227 218.694 141.618 218.694C142.993 218.694 144.076 218.293 144.868 217.486C145.66 216.684 146.056 215.569 146.056 214.152V204.319H148.889Z" fill="black"/>
<path d="M162.528 204.236C163.705 204.236 164.861 204.465 165.986 204.923C167.121 205.382 168.1 206.022 168.923 206.84L167.257 208.902C166.642 208.236 165.923 207.715 165.09 207.34C164.257 206.955 163.413 206.757 162.569 206.757C160.887 206.757 159.465 207.335 158.298 208.486C157.142 209.626 156.569 211.017 156.569 212.652C156.569 214.319 157.142 215.731 158.298 216.882C159.465 218.022 160.887 218.59 162.569 218.59C164.319 218.59 165.882 217.923 167.257 216.59L168.944 218.465C168.069 219.314 167.054 219.986 165.903 220.486C164.762 220.986 163.6 221.236 162.423 221.236C159.965 221.236 157.892 220.418 156.215 218.777C154.533 217.142 153.694 215.111 153.694 212.694C153.694 210.309 154.548 208.298 156.257 206.673C157.965 205.048 160.054 204.236 162.528 204.236Z" fill="black"/>
<path d="M185.433 206.861H180.1V221.111H177.267V206.861H171.954V204.319H185.433V206.861Z" fill="black"/>
<path d="M192.819 221.111H189.986V204.319H192.819V221.111Z" fill="black"/>
<path d="M200.537 206.673C202.255 205.048 204.37 204.236 206.87 204.236C209.38 204.236 211.495 205.048 213.203 206.673C214.922 208.298 215.787 210.314 215.787 212.715C215.787 215.121 214.922 217.142 213.203 218.777C211.495 220.418 209.38 221.236 206.87 221.236C204.37 221.236 202.255 220.418 200.537 218.777C198.828 217.142 197.974 215.121 197.974 212.715C197.974 210.314 198.828 208.298 200.537 206.673ZM206.912 206.777C205.245 206.777 203.813 207.356 202.62 208.507C201.438 209.647 200.849 211.048 200.849 212.715C200.849 214.382 201.443 215.798 202.641 216.965C203.834 218.121 205.25 218.694 206.891 218.694C208.542 218.694 209.953 218.121 211.12 216.965C212.297 215.798 212.891 214.382 212.891 212.715C212.891 211.048 212.297 209.647 211.12 208.507C209.953 207.356 208.547 206.777 206.912 206.777Z" fill="black"/>
<path d="M235.508 221.111H232.738L223.779 209.069V221.111H220.946V204.319H223.738L232.738 216.382V204.319H235.508V221.111Z" fill="black"/>
</svg>
