<svg width="384" height="192" viewBox="0 0 384 192" fill="none" xmlns="http://www.w3.org/2000/svg">
<g clip-path="url(#clip0_1_5)">
<rect width="384" height="192" fill="white"/>
<path d="M0 64.4063L97.5625 43.9063L0 38.5312V64.4063Z" fill="#F68334"/>
<path d="M187.104 161.635L383.963 174.901V134.75L187.104 161.635Z" fill="#79A6BC"/>
<path d="M0 0V39.0885L384 64.4063V0H0ZM0 192H384V174.906L0 149.026V192Z" fill="#02547F"/>
<path d="M122.63 66.2396L90.541 122.505H99.5462L122.63 82.0417V133.714H72.7129V61.6562H113.609L89.2181 104.422L84.7441 112.26L83.3796 114.661L78.9004 122.505H87.916L122.624 61.6562H122.63V66.2396ZM135.083 82.2917H141.046L147.65 92.9792L154.26 82.2917H160.223V107.932L154.765 108.573V91.0677L147.687 101.865H147.546L140.541 91.1719V107.573H135.083V82.2917ZM177.604 96.375C177.437 95.1458 177.005 94.1563 176.312 93.3958C175.614 92.6354 174.692 92.2552 173.546 92.2552C172.395 92.2552 171.468 92.6302 170.76 93.375C170.057 94.125 169.593 95.125 169.38 96.375H177.604ZM174.083 108.005C172.65 108.005 171.312 107.76 170.083 107.281C168.848 106.802 167.786 106.115 166.885 105.224C165.989 104.333 165.286 103.281 164.786 102.063C164.281 100.849 164.031 99.4948 164.031 98V97.9271C164.031 96.5573 164.265 95.2552 164.729 94.026C165.197 92.7969 165.848 91.7292 166.687 90.8125C167.525 89.901 168.525 89.1771 169.687 88.6458C170.843 88.1146 172.135 87.8542 173.546 87.8542C175.15 87.8542 176.536 88.1406 177.713 88.7188C178.885 89.2969 179.859 90.0729 180.635 91.0469C181.416 92.026 181.989 93.1458 182.364 94.4063C182.734 95.6719 182.921 96.9896 182.921 98.3594C182.921 98.5781 182.911 98.8073 182.9 99.0469C182.885 99.2865 182.869 99.5417 182.848 99.8073H169.452C169.713 101.057 170.26 102.005 171.083 102.641C171.911 103.281 172.937 103.599 174.156 103.599C175.067 103.599 175.88 103.443 176.598 103.13C177.317 102.818 178.057 102.307 178.822 101.615L181.952 104.391C181.041 105.526 179.937 106.406 178.645 107.047C177.354 107.682 175.827 108.005 174.083 108.005ZM196.275 103.271C196.926 103.271 197.531 103.146 198.088 102.891C198.656 102.641 199.145 102.281 199.562 101.807C199.984 101.344 200.317 100.776 200.572 100.109C200.817 99.4479 200.947 98.7188 200.947 97.9271V97.8542C200.947 97.0625 200.817 96.3333 200.572 95.6719C200.317 95.0104 199.984 94.4427 199.562 93.974C199.145 93.5052 198.656 93.1458 198.088 92.8906C197.531 92.6354 196.926 92.5104 196.275 92.5104C195.63 92.5104 195.025 92.6354 194.463 92.8906C193.9 93.1458 193.406 93.5052 192.973 93.974C192.541 94.4427 192.202 95 191.947 95.651C191.702 96.3021 191.572 97.0365 191.572 97.8542V97.9271C191.572 98.7188 191.702 99.4479 191.947 100.109C192.202 100.776 192.541 101.344 192.973 101.807C193.406 102.281 193.9 102.641 194.463 102.891C195.025 103.146 195.63 103.271 196.275 103.271ZM194.874 107.932C193.749 107.932 192.661 107.714 191.609 107.281C190.551 106.849 189.619 106.203 188.807 105.349C187.994 104.495 187.343 103.448 186.848 102.208C186.359 100.969 186.114 99.5417 186.114 97.9271V97.8542C186.114 96.2448 186.359 94.8125 186.848 93.5729C187.343 92.3333 187.989 91.2917 188.791 90.4323C189.593 89.5781 190.52 88.9323 191.572 88.5052C192.624 88.0677 193.729 87.8542 194.874 87.8542C196.338 87.8542 197.541 88.1406 198.484 88.7188C199.432 89.2969 200.223 89.974 200.874 90.7396V81.8542L206.333 81.2083V107.573H200.874V104.792C200.202 105.703 199.395 106.458 198.452 107.047C197.505 107.635 196.312 107.932 194.874 107.932ZM218.614 104.141C219.911 104.141 220.942 103.828 221.723 103.203C222.499 102.573 222.89 101.755 222.89 100.745V99.7708C222.411 99.5521 221.88 99.375 221.291 99.2448C220.702 99.1146 220.077 99.0469 219.406 99.0469C218.234 99.0469 217.312 99.276 216.64 99.7344C215.973 100.193 215.635 100.854 215.635 101.719V101.792C215.635 102.536 215.911 103.12 216.458 103.526C217.01 103.938 217.729 104.141 218.614 104.141ZM216.963 107.932C216.051 107.932 215.197 107.802 214.395 107.552C213.593 107.302 212.895 106.922 212.296 106.417C211.697 105.911 211.223 105.286 210.874 104.557C210.531 103.823 210.359 102.974 210.359 102.005V101.938C210.359 100.875 210.546 99.9635 210.932 99.1927C211.312 98.4219 211.843 97.7813 212.531 97.276C213.213 96.7708 214.025 96.3906 214.973 96.1406C215.916 95.8854 216.963 95.7604 218.114 95.7604C219.098 95.7604 219.947 95.8333 220.682 95.9792C221.411 96.125 222.119 96.3177 222.817 96.5573V96.2292C222.817 95.0729 222.468 94.1979 221.775 93.5938C221.083 92.9948 220.051 92.6927 218.687 92.6927C217.635 92.6927 216.708 92.7813 215.906 92.9635C215.098 93.1458 214.26 93.401 213.374 93.7396L212.01 89.5469C213.062 89.0938 214.161 88.7188 215.312 88.4271C216.458 88.1406 217.848 88 219.479 88C220.984 88 222.27 88.1823 223.338 88.5573C224.406 88.9323 225.281 89.4635 225.979 90.1615C226.697 90.8854 227.223 91.7708 227.557 92.8177C227.89 93.8646 228.062 95.0417 228.062 96.3385V107.568H222.781V105.474C222.109 106.224 221.312 106.818 220.374 107.266C219.442 107.708 218.307 107.932 216.963 107.932ZM233.015 82.151L238.473 81.2083V107.573H233.015V82.151ZM243.859 82.151L249.317 81.2083V107.573H243.859V82.151ZM254.416 88.2135H259.874V107.573H254.416V88.2135ZM287.119 88.2135H292.577V90.9792C292.89 90.5677 293.234 90.1771 293.604 89.7969C293.973 89.4219 294.385 89.0885 294.843 88.7969C295.296 88.5052 295.801 88.276 296.354 88.1042C296.9 87.9375 297.525 87.849 298.218 87.849C300.301 87.849 301.911 88.4896 303.046 89.7656C304.187 91.0417 304.755 92.8021 304.755 95.0365V107.568L299.296 108.214V96.7969C299.296 95.5 299.01 94.5208 298.432 93.8646C297.859 93.2031 297.046 92.8698 295.989 92.8698C294.937 92.8698 294.104 93.2031 293.494 93.8646C292.885 94.5208 292.577 95.5 292.577 96.7969V107.568H287.119V88.2135ZM273.64 103.026C270.812 103.026 268.515 100.719 268.515 97.875C268.515 95.026 270.812 92.7188 273.64 92.7188C276.473 92.7188 278.765 95.026 278.765 97.875C278.765 100.719 276.473 103.026 273.64 103.026ZM273.64 88.2135C268.333 88.2135 264.036 92.5365 264.036 97.875C264.036 103.208 268.333 107.531 273.64 107.531C278.947 107.531 283.249 103.208 283.249 97.875C283.249 92.5365 278.947 88.2135 273.64 88.2135ZM257.145 86.5885C255.682 86.5885 254.499 85.401 254.499 83.9323C254.499 82.4635 255.682 81.276 257.145 81.276C258.609 81.276 259.791 82.4635 259.791 83.9323C259.791 85.401 258.609 86.5885 257.145 86.5885ZM143.202 130.323C144.031 130.323 144.682 130.177 145.15 129.875C145.624 129.573 145.859 129.099 145.859 128.464V128.417C145.859 127.844 145.64 127.385 145.202 127.057C144.765 126.719 144.057 126.552 143.077 126.552H138.739V130.323H143.202ZM142.202 123.411C143.031 123.411 143.687 123.271 144.176 122.984C144.666 122.698 144.906 122.234 144.906 121.599V121.547C144.906 120.979 144.697 120.542 144.275 120.24C143.854 119.938 143.239 119.786 142.447 119.786H138.739V123.411H142.202ZM135.083 116.474H142.994C144.958 116.474 146.437 116.984 147.447 117.995C148.223 118.776 148.614 119.755 148.614 120.911V120.964C148.614 121.453 148.557 121.885 148.432 122.26C148.312 122.635 148.15 122.979 147.947 123.276C147.744 123.578 147.51 123.849 147.244 124.078C146.979 124.307 146.692 124.5 146.385 124.661C147.374 125.042 148.15 125.552 148.718 126.193C149.281 126.844 149.567 127.734 149.567 128.88V128.927C149.567 129.714 149.411 130.401 149.114 130.99C148.812 131.578 148.385 132.068 147.822 132.458C147.265 132.854 146.593 133.146 145.801 133.344C145.015 133.536 144.145 133.635 143.187 133.635H135.083V116.474ZM171.942 116.474H175.406L183.4 127.042V116.474H187.104V133.635H183.911L175.65 122.729V133.635H171.942V116.474ZM158.02 126.302L160.218 120.891L162.098 125.526L158.02 126.302ZM165.385 133.635H169.312L161.994 116.354H158.536L151.218 133.635H155.051L156.546 129.938L163.359 128.641L165.385 133.635ZM205.921 116.474H201.708L196.734 123.427L194.952 123.766V116.474H191.197V133.635H194.952V127.12L196.807 126.771L201.708 133.62H205.921L199.791 125.047L205.921 116.474Z" fill="#255989"/>
<path d="M63.7285 95.9427L72.7077 111.667L78.9004 122.51L83.3743 114.661L72.7077 95.9688L72.6921 95.9427H63.7285Z" fill="#7AA5BB"/>
<path d="M78.9004 122.505V122.51H87.8587L87.8535 122.505H78.9004Z" fill="#18557A"/>
<path d="M89.2181 104.422L84.7493 112.266L75.4316 95.9427H84.3796L89.2181 104.422Z" fill="#79A5BB"/>
<path d="M99.5112 135.74C99.0268 130.026 94.0321 125.786 88.3498 126.276C82.6675 126.76 78.4539 131.786 78.9383 137.5C79.4227 143.214 84.4175 147.448 90.0998 146.964C95.7821 146.474 99.9956 141.453 99.5112 135.74Z" fill="#F3CD27"/>
<path d="M117.141 138.068H117.537C117.995 138.068 118.37 137.911 118.37 137.542C118.37 137.214 118.131 136.995 117.605 136.995C117.381 136.995 117.23 137.016 117.141 137.036V138.068ZM117.12 140.104H116.287V136.51C116.615 136.448 117.079 136.401 117.667 136.401C118.35 136.401 118.652 136.51 118.917 136.667C119.11 136.818 119.266 137.104 119.266 137.453C119.266 137.849 118.959 138.156 118.521 138.286V138.328C118.87 138.458 119.068 138.724 119.178 139.203C119.287 139.75 119.355 139.969 119.438 140.104H118.542C118.433 139.969 118.37 139.641 118.261 139.224C118.193 138.833 117.975 138.656 117.516 138.656H117.12V140.104ZM114.912 138.219C114.912 139.818 116.094 141.089 117.709 141.089C119.287 141.089 120.449 139.818 120.449 138.24C120.449 136.646 119.287 135.354 117.688 135.354C116.094 135.354 114.912 136.646 114.912 138.219ZM121.365 138.219C121.365 140.255 119.771 141.854 117.688 141.854C115.631 141.854 113.99 140.255 113.99 138.219C113.99 136.229 115.631 134.63 117.688 134.63C119.771 134.63 121.365 136.229 121.365 138.219Z" fill="#25466B"/>
<path d="M149.726 23.0684L149.372 21.2142H147.768V24.1934L148.08 24.3184C148.08 24.3184 149.559 25.0059 151.247 25.0059C153.476 25.0059 155.601 23.7142 155.601 21.3184C155.601 17.7142 149.83 18.6517 149.83 16.2142C149.83 15.4225 150.351 14.8392 151.788 14.8392C152.663 14.8392 153.622 15.0892 153.622 15.0892L153.288 14.9434L153.893 16.8392H155.247L155.33 13.9434L155.288 14.0684C155.288 14.0684 153.288 13.1309 151.768 13.1309C149.768 13.1309 147.788 14.2559 147.788 16.485C147.788 20.3184 153.559 19.2975 153.559 21.7559C153.559 22.8809 152.476 23.2975 151.309 23.2975C150.268 23.2975 149.684 23.1934 149.684 23.1934L149.726 23.0684Z" fill="white"/>
<path d="M160.07 16.2559V13.6934L158.112 14.11V16.11L156.508 16.2559V17.6309H158.112V22.5059C158.112 24.2975 159.174 25.0059 160.133 25.0059C160.945 25.0059 161.799 24.6725 162.591 24.0892L162.008 22.9434C161.383 23.2767 161.091 23.4017 160.695 23.4017C160.258 23.4017 160.07 23.3392 160.07 22.5892V17.6309H162.404V16.0892H160.07V16.2559Z" fill="white"/>
<path d="M163.702 16.6725L163.806 18.8392H165.16L165.431 17.4642L165.368 17.5892C165.368 17.5892 165.91 17.4017 166.868 17.4017C167.827 17.4017 168.181 17.6934 168.181 18.6725V19.7767H167.098C164.868 19.7767 163.223 20.5892 163.223 22.4225C163.223 23.9434 164.306 25.0059 165.827 25.0059C166.952 25.0059 168.035 24.2142 168.348 23.8809L168.66 24.86L171.431 24.7559V23.5684L170.16 23.235V18.5059C170.16 16.6725 168.868 15.8392 167.014 15.8392C165.66 15.8392 164.035 16.7975 164.035 16.7975L163.702 16.6725ZM167.264 21.1517H168.181V22.2559L168.514 22.3809C168.514 22.3809 167.431 23.36 166.223 23.36C165.493 23.36 165.223 23.0684 165.223 22.3392C165.223 21.3809 165.66 21.1517 167.264 21.1517Z" fill="white"/>
<path d="M175.347 17.36L175.18 15.985L172.201 16.0892V17.2975L173.555 17.61V23.2559L172.201 23.6517V24.8392H177.118V23.6309L175.514 23.235V18.6934C175.826 18.2975 176.472 17.5684 177.493 17.5684L177.743 18.7559H179.118L179.201 16.2559L179.16 16.3809C179.16 16.3809 178.389 15.8392 177.576 15.8392C176.493 15.8392 175.43 16.7767 175.285 16.9434L175.347 17.36Z" fill="white"/>
<path d="M182.869 16.2559V13.6934L180.911 14.11V16.11L179.307 16.2559V17.6309H180.911V22.5059C180.911 24.2975 181.973 25.0059 182.932 25.0059C183.744 25.0059 184.598 24.6725 185.39 24.0892L184.807 22.9434C184.182 23.2767 183.89 23.4017 183.494 23.4017C183.057 23.4017 182.869 23.3392 182.869 22.5892V17.6309H185.202V16.0892H182.869V16.2559Z" fill="white"/>
<path d="M193.286 17.1517V15.985L189.141 16.0892V17.2975L190.182 17.5475L192.974 24.6934C192.036 26.735 191.766 27.0475 190.349 27.0475C190.182 27.0475 190.016 27.0475 189.641 27.0059L189.495 28.4225L189.807 28.5475C189.807 28.5475 190.307 28.6725 190.703 28.6725C193.349 28.6725 194.349 25.86 195.203 23.6309L197.411 17.4642L198.516 17.2975V15.985L194.349 16.0892V17.2975L195.432 17.5059L193.703 22.9017H194.078L192.203 17.4434L193.286 17.2975V17.1517Z" fill="white"/>
<path d="M202.824 15.8392C200.407 15.8392 198.553 17.7767 198.553 20.5059C198.553 23.3809 200.178 25.0059 202.574 25.0059C204.969 25.0059 206.74 22.985 206.74 20.2559C206.74 17.6934 205.219 15.8392 202.824 15.8392ZM202.74 17.485C204.344 17.485 204.699 18.5892 204.699 20.3392C204.699 22.4225 204.261 23.36 202.657 23.36C201.053 23.36 200.594 22.3392 200.594 20.4225C200.594 18.3392 201.136 17.485 202.74 17.485Z" fill="white"/>
<path d="M216.027 23.3809V15.985L212.694 16.0892V17.2975L214.069 17.61V22.1934L214.382 22.3184C214.382 22.3184 213.298 23.2975 211.944 23.2975C210.902 23.2975 210.673 22.9225 210.673 21.7975V15.985L207.34 16.0892V17.2975L208.694 17.61V21.9642C208.694 23.7142 209.694 25.0059 211.465 25.0059C212.757 25.0059 214.152 24.0059 214.277 23.9017L214.423 24.86L217.382 24.7559V23.5684L216.027 23.235V23.3809Z" fill="white"/>
<path d="M221.218 17.36L221.051 15.985L218.072 16.0892V17.2975L219.426 17.61V23.2559L218.072 23.6517V24.8392H222.989V23.6309L221.385 23.235V18.6934C221.697 18.2975 222.343 17.5684 223.364 17.5684L223.614 18.7559H224.989L225.072 16.2559L225.031 16.3809C225.031 16.3809 224.26 15.8392 223.447 15.8392C222.364 15.8392 221.301 16.7767 221.156 16.9434L221.218 17.36Z" fill="white"/>
<path d="M232.38 23.3809V12.1517L229.025 12.2559V13.4434L230.38 13.7767V23.2559L229.025 23.6517V24.8392H233.817V23.6517L232.38 23.2559V23.3809Z" fill="white"/>
<path d="M238.456 15.8392C236.04 15.8392 234.186 17.7767 234.186 20.5059C234.186 23.3809 235.811 25.0059 238.206 25.0059C240.602 25.0059 242.373 22.985 242.373 20.2559C242.373 17.6934 240.852 15.8392 238.456 15.8392ZM238.373 17.485C239.977 17.485 240.331 18.5892 240.331 20.3392C240.331 22.4225 239.894 23.36 238.29 23.36C236.686 23.36 236.227 22.3392 236.227 20.4225C236.227 18.3392 236.769 17.485 238.373 17.485Z" fill="white"/>
<path d="M243.846 16.6725L243.951 18.8392H245.305L245.576 17.4642L245.513 17.5892C245.513 17.5892 246.055 17.4017 247.013 17.4017C247.971 17.4017 248.326 17.6934 248.326 18.6725V19.7767H247.242C245.013 19.7767 243.367 20.5892 243.367 22.4225C243.367 23.9434 244.451 25.0059 245.971 25.0059C247.096 25.0059 248.18 24.2142 248.492 23.8809L248.805 24.86L251.576 24.7559V23.5684L250.305 23.235V18.5059C250.305 16.6725 249.013 15.8392 247.159 15.8392C245.805 15.8392 244.18 16.7975 244.18 16.7975L243.846 16.6725ZM247.409 21.1517H248.326V22.2559L248.659 22.3809C248.659 22.3809 247.576 23.36 246.367 23.36C245.638 23.36 245.367 23.0684 245.367 22.3392C245.367 21.3809 245.805 21.1517 247.409 21.1517Z" fill="white"/>
<path d="M255.49 17.3184L255.302 15.985L252.344 16.0892V17.2975L253.698 17.61V23.2559L252.344 23.6517V24.8392H256.698V23.6725L255.656 23.2767V18.6725L255.615 18.7975C255.615 18.7975 256.448 17.5684 257.802 17.5684C258.844 17.5684 259.052 17.9434 259.052 19.0684V23.2767L258.01 23.6725V24.8392H262.219V23.6517L261.031 23.2559V18.9017C261.031 17.1517 260.052 15.8392 258.281 15.8392C256.948 15.8392 255.552 16.86 255.427 16.9434L255.49 17.3184Z" fill="white"/>
<path d="M269.706 17.0892L269.561 15.985L266.498 16.0892V17.2975L267.852 17.61V27.0059L266.581 27.3184V28.5267H271.498V27.3184L269.831 27.0059V24.8392C270.081 24.9017 270.561 25.0059 271.081 25.0059C274.04 25.0059 275.581 22.9017 275.581 20.1934C275.581 17.6934 274.29 15.8392 271.956 15.8392C270.852 15.8392 269.873 16.5059 269.665 16.7142L269.706 17.0892ZM269.831 23.2142V18.4225L269.769 18.5475C269.769 18.5475 270.206 17.485 271.644 17.485C273.081 17.485 273.54 18.5892 273.54 20.3392C273.54 22.11 273.186 23.36 271.331 23.36H269.769L269.831 23.2142Z" fill="white"/>
<path d="M279.73 17.36L279.563 15.985L276.584 16.0892V17.2975L277.938 17.61V23.2559L276.584 23.6517V24.8392H281.501V23.6309L279.896 23.235V18.6934C280.209 18.2975 280.855 17.5684 281.876 17.5684L282.126 18.7559H283.501L283.584 16.2559L283.542 16.3809C283.542 16.3809 282.771 15.8392 281.959 15.8392C280.876 15.8392 279.813 16.7767 279.667 16.9434L279.73 17.36Z" fill="white"/>
<path d="M288.296 15.8392C285.88 15.8392 284.025 17.7767 284.025 20.5059C284.025 23.3809 285.65 25.0059 288.046 25.0059C290.442 25.0059 292.213 22.985 292.213 20.2559C292.213 17.6934 290.692 15.8392 288.296 15.8392ZM288.213 17.485C289.817 17.485 290.171 18.5892 290.171 20.3392C290.171 22.4225 289.734 23.36 288.13 23.36C286.525 23.36 286.067 22.3392 286.067 20.4225C286.067 18.3392 286.609 17.485 288.213 17.485Z" fill="white"/>
<path d="M299.082 19.0059H300.311L300.374 16.6725L300.332 16.7975C300.332 16.7975 298.936 15.8392 297.478 15.8392C294.936 15.8392 293.145 17.86 293.145 20.4225C293.145 23.1517 294.686 25.0059 297.332 25.0059C299.082 25.0059 300.645 23.6725 300.645 23.6725V23.4225L300.103 22.4642V22.7142C300.103 22.7142 298.999 23.36 297.478 23.36C295.957 23.36 295.186 22.4225 295.186 20.2559C295.186 18.2559 295.895 17.485 297.415 17.485C298.207 17.485 298.978 17.5892 298.978 17.5892L298.645 17.4642L298.936 19.0059H299.082Z" fill="white"/>
<path d="M303.159 20.8392L308.68 20.7975L308.805 20.7559C308.805 20.7559 308.951 20.1934 308.951 19.7767C308.951 17.3809 307.721 15.8392 305.409 15.8392C303.096 15.8392 301.305 17.9434 301.305 20.5059C301.305 23.1517 302.763 25.0059 305.326 25.0059C307.242 25.0059 308.867 23.6309 308.867 23.6309V23.36L308.305 22.5267V22.7975C308.305 22.7975 307.096 23.36 305.492 23.36C304.117 23.36 303.346 22.4225 303.346 20.8392H303.159ZM307.076 19.2975H303.43C303.492 18.2559 304.055 17.4434 305.326 17.4434C306.596 17.4434 306.888 18.2559 306.888 19.2975H307.076Z" fill="white"/>
<path d="M311.341 21.9225H310.029V24.4642L310.341 24.5892C310.341 24.5892 311.279 25.0059 312.758 25.0059C314.674 25.0059 316.445 23.9225 316.445 22.0892C316.445 19.36 311.987 20.0059 311.987 18.2975C311.987 17.485 312.424 17.4017 313.237 17.4017C314.029 17.4017 314.654 17.5475 314.654 17.5475L314.341 17.4225L314.633 18.8392H316.008L316.049 16.5059L316.008 16.6309C316.008 16.6309 314.404 15.8392 313.133 15.8392C311.487 15.8392 310.008 16.86 310.008 18.5267C310.008 21.4225 314.487 20.6309 314.487 22.36C314.487 23.36 313.82 23.4434 312.862 23.4434C312.008 23.4434 311.654 23.61 311.654 23.61L311.695 23.485L311.487 21.9225H311.341Z" fill="white"/>
<path d="M318.845 21.9225H317.533V24.4642L317.845 24.5892C317.845 24.5892 318.783 25.0059 320.262 25.0059C322.178 25.0059 323.949 23.9225 323.949 22.0892C323.949 19.36 319.491 20.0059 319.491 18.2975C319.491 17.485 319.928 17.4017 320.741 17.4017C321.533 17.4017 322.158 17.5475 322.158 17.5475L321.845 17.4225L322.137 18.8392H323.512L323.553 16.5059L323.512 16.6309C323.512 16.6309 321.908 15.8392 320.637 15.8392C318.991 15.8392 317.512 16.86 317.512 18.5267C317.512 21.4225 321.991 20.6309 321.991 22.36C321.991 23.36 321.324 23.4434 320.366 23.4434C319.512 23.4434 319.158 23.61 319.158 23.61L319.199 23.485L318.991 21.9225H318.845Z" fill="white"/>
<path d="M331.779 17.3184L331.591 15.985L328.633 16.0892V17.2975L329.987 17.61V23.2559L328.633 23.6517V24.8392H332.987V23.6725L331.945 23.2767V18.6725L331.904 18.7975C331.904 18.7975 332.737 17.5684 334.091 17.5684C335.133 17.5684 335.341 17.9434 335.341 19.0684V23.2767L334.299 23.6725V24.8392H338.508V23.6517L337.32 23.2559V18.9017C337.32 17.1517 336.341 15.8392 334.57 15.8392C333.237 15.8392 331.841 16.86 331.716 16.9434L331.779 17.3184Z" fill="white"/>
<path d="M343.544 15.8392C341.128 15.8392 339.273 17.7767 339.273 20.5059C339.273 23.3809 340.898 25.0059 343.294 25.0059C345.69 25.0059 347.461 22.985 347.461 20.2559C347.461 17.6934 345.94 15.8392 343.544 15.8392ZM343.461 17.485C345.065 17.485 345.419 18.5892 345.419 20.3392C345.419 22.4225 344.982 23.36 343.378 23.36C341.773 23.36 341.315 22.3392 341.315 20.4225C341.315 18.3392 341.857 17.485 343.461 17.485Z" fill="white"/>
<path d="M351.708 17.1517V15.985L347.75 16.0892V17.2767L348.583 17.5267L350.583 24.8392H352.688L354.271 19.6934L354.604 18.1725H354.229L354.625 19.6934L356.208 24.8392H358.313L360.25 17.4642L361.229 17.2975V15.985L357.271 16.0892V17.2975L358.354 17.5267L357.104 23.2142H357.479L355.417 15.8184L353.646 16.11L351.5 23.2142H351.875L350.542 17.4642L351.708 17.2975V17.1517Z" fill="white"/>
<path d="M361.988 23.6934C361.988 24.4225 362.572 25.0059 363.217 25.0059C363.78 25.0059 364.426 24.4225 364.426 23.6934C364.426 22.985 363.863 22.4017 363.217 22.4017C362.655 22.4017 361.988 22.985 361.988 23.6934Z" fill="white"/>
<path d="M13.0566 169.68V170.513H16.4316V169.513L15.515 169.305V167.555L17.5566 163.846L18.2858 163.638V162.638L15.2858 162.701V163.638L16.0358 163.826L14.765 166.242L13.6191 163.826L14.2858 163.638V162.638L11.1816 162.701V163.638L11.9733 163.867L13.9525 167.576V169.305L13.0566 169.513V169.68Z" fill="white"/>
<path d="M21.332 164.346C19.7279 164.346 18.3945 165.721 18.3945 167.534C18.3945 169.451 19.582 170.617 21.1654 170.617C22.7695 170.617 24.0612 169.201 24.0612 167.367C24.0612 165.68 22.9362 164.346 21.332 164.346ZM21.2695 165.596C22.3529 165.596 22.4987 166.263 22.4987 167.43C22.4987 168.826 22.2904 169.367 21.2279 169.367C20.1654 169.367 19.9362 168.763 19.9362 167.492C19.9362 166.096 20.207 165.596 21.2695 165.596Z" fill="white"/>
<path d="M30.2461 169.451V164.451L27.8294 164.513V165.451L28.7461 165.68V168.659L29.1003 168.826C29.1003 168.826 28.3294 169.305 27.4128 169.305C26.7253 169.305 26.6628 169.138 26.6628 168.409V164.451L24.2461 164.513V165.451L25.1628 165.68V168.513C25.1628 169.68 25.9128 170.617 27.1003 170.617C27.9753 170.617 28.9544 169.93 28.9128 169.971L28.9753 170.534L31.1419 170.451V169.513L30.2461 169.305V169.451Z" fill="white"/>
<path d="M33.6999 165.43L33.5749 164.451L31.4082 164.513V165.451L32.304 165.68V169.326L31.4082 169.576V170.513H34.8874V169.576L33.804 169.305V166.346C33.9915 166.138 34.3457 165.659 34.9707 165.659L35.1165 166.451H36.1999L36.2624 164.701L36.1999 164.867C36.1999 164.867 35.6165 164.346 35.0957 164.346C34.3665 164.346 33.5957 164.992 33.6374 164.951L33.6999 165.43Z" fill="white"/>
<path d="M41.0501 165.263L40.9251 164.451L38.7168 164.513V165.451L39.6126 165.68V171.805L38.7585 172.034V172.971H42.2376V172.013L41.1126 171.805V170.555C41.196 170.555 41.5085 170.617 41.8626 170.617C43.8418 170.617 44.9668 169.138 44.9668 167.326C44.9668 165.68 44.0085 164.346 42.446 164.346C41.7168 164.346 40.9876 164.826 40.9876 164.826L41.0501 165.263ZM41.1126 169.346V166.159L41.0501 166.305C41.0501 166.305 41.2793 165.596 42.2376 165.596C43.196 165.596 43.4043 166.263 43.4043 167.43C43.4043 168.596 43.2585 169.367 42.0293 169.367C41.2168 169.367 41.0501 169.492 41.0501 169.492L41.1126 169.346Z" fill="white"/>
<path d="M46.7689 167.846L50.4564 167.826L50.6022 167.763C50.6022 167.763 50.7272 167.326 50.7272 167.055C50.7272 165.451 49.8105 164.346 48.2689 164.346C46.7272 164.346 45.4355 165.826 45.4355 167.534C45.4355 169.305 46.498 170.617 48.2064 170.617C49.498 170.617 50.6439 169.68 50.6439 169.68V169.388L50.2689 168.846V169.117C50.2689 169.117 49.3939 169.367 48.3105 169.367C47.3939 169.367 46.9772 168.826 46.9772 167.846H46.7689ZM49.373 166.638H47.0397C47.1022 166.034 47.3522 165.576 48.2064 165.576C49.0605 165.576 49.1439 166.034 49.1439 166.638H49.373Z" fill="white"/>
<path d="M53.487 165.43L53.362 164.451L51.1953 164.513V165.451L52.0911 165.68V169.326L51.1953 169.576V170.513H54.6745V169.576L53.5911 169.305V166.346C53.7786 166.138 54.1328 165.659 54.7578 165.659L54.9036 166.451H55.987L56.0495 164.701L55.987 164.867C55.987 164.867 55.4036 164.346 54.8828 164.346C54.1536 164.346 53.3828 164.992 53.4245 164.951L53.487 165.43Z" fill="white"/>
<path d="M57.1764 168.409H56.2181V170.18L56.5931 170.326C56.5931 170.326 57.1348 170.617 58.1139 170.617C59.4056 170.617 60.6764 169.826 60.6764 168.596C60.6764 166.763 57.6973 167.201 57.6973 166.055C57.6973 165.513 57.9056 165.555 58.4473 165.555C58.9681 165.555 59.4473 165.638 59.4473 165.638L59.0931 165.471L59.3014 166.513H60.3639L60.4264 164.867L60.3431 165.013C60.3431 165.013 59.2181 164.346 58.3848 164.346C57.2806 164.346 56.1973 165.096 56.1973 166.221C56.1973 168.159 59.1764 167.617 59.1764 168.784C59.1764 169.43 58.8431 169.409 58.1973 169.409C57.6139 169.409 57.4473 169.68 57.4473 169.68L57.5098 169.513L57.3639 168.409H57.1764Z" fill="white"/>
<path d="M64.0957 164.346C62.4915 164.346 61.1582 165.721 61.1582 167.534C61.1582 169.451 62.3457 170.617 63.929 170.617C65.5332 170.617 66.8249 169.201 66.8249 167.367C66.8249 165.68 65.6999 164.346 64.0957 164.346ZM64.0332 165.596C65.1165 165.596 65.2624 166.263 65.2624 167.43C65.2624 168.826 65.054 169.367 63.9915 169.367C62.929 169.367 62.6999 168.763 62.6999 167.492C62.6999 166.096 62.9707 165.596 64.0332 165.596Z" fill="white"/>
<path d="M69.5299 165.409L69.4049 164.451L67.2383 164.513V165.451L68.1341 165.68V169.326L67.2383 169.576V170.513H70.3424V169.596L69.6341 169.346V166.305L69.5716 166.451C69.5716 166.451 70.0716 165.659 70.9674 165.659C71.6758 165.659 71.7174 165.826 71.7174 166.576V169.346L71.0091 169.596V170.513H74.0091V169.596L73.2174 169.326V166.471C73.2174 165.305 72.4674 164.346 71.3008 164.346C70.4049 164.346 69.4049 165.055 69.4674 164.992L69.5299 165.409Z" fill="white"/>
<path d="M74.7064 164.971L74.7689 166.513H75.8314L76.0397 165.513L75.9772 165.659C75.9772 165.659 76.248 165.555 76.8939 165.555C77.5397 165.555 77.6855 165.68 77.6855 166.305V166.971H77.0605C75.5605 166.971 74.373 167.596 74.373 168.826C74.373 169.826 75.1855 170.617 76.2064 170.617C76.9564 170.617 77.748 170.076 77.8522 169.951L78.0189 170.534L80.0397 170.451V169.513L79.1855 169.305V166.201C79.1855 164.971 78.248 164.346 76.998 164.346C76.1022 164.346 75.0814 165.117 75.0814 165.117L74.7064 164.971ZM77.1647 168.055H77.6855V168.701L78.0605 168.867C78.0605 168.867 77.2689 169.367 76.4772 169.367C75.998 169.367 75.9147 169.242 75.9147 168.763C75.9147 168.117 76.1022 168.055 77.1647 168.055Z" fill="white"/>
<path d="M82.6706 169.451V161.888L80.2539 161.951V162.888L81.1497 163.117V169.326L80.2539 169.576V170.513H83.6289V169.576L82.6706 169.326V169.451Z" fill="white"/>
<path d="M12.2012 175.688C12.2012 176.167 12.7012 176.646 13.1178 176.646C13.4303 176.646 14.0345 176.167 14.0345 175.688C14.0345 175.167 13.5553 174.751 13.1178 174.751C12.7428 174.751 12.2012 175.209 12.2012 175.688ZM13.9095 182.251V177.251L11.5137 177.313V178.251L12.4095 178.48V182.126L11.5137 182.376V183.313H14.722V182.396L13.9095 182.126V182.251Z" fill="white"/>
<path d="M17.3796 178.209L17.2546 177.251L15.0879 177.313V178.251L15.9837 178.48V182.126L15.0879 182.376V183.313H18.1921V182.396L17.4837 182.146V179.105L17.4212 179.251C17.4212 179.251 17.9212 178.459 18.8171 178.459C19.5254 178.459 19.5671 178.626 19.5671 179.376V182.146L18.8587 182.396V183.313H21.8587V182.396L21.0671 182.126V179.271C21.0671 178.105 20.3171 177.146 19.1504 177.146C18.2546 177.146 17.2546 177.855 17.3171 177.792L17.3796 178.209Z" fill="white"/>
<path d="M23.4102 177.313L22.2227 177.438V178.521H23.181V182.126L22.2852 182.376V183.313H25.7643V182.376L24.7018 182.105V178.521H26.056L26.1185 177.313H24.7018V176.667C24.7018 176.021 24.7018 175.792 25.431 175.792H26.2227L25.8477 175.646L26.056 176.709H27.2018V175.167L27.1393 175.313C27.1393 175.313 26.3893 174.584 25.3893 174.584C24.0977 174.584 23.181 175.584 23.181 176.876V177.334L23.4102 177.313Z" fill="white"/>
<path d="M29.5449 177.146C27.9408 177.146 26.6074 178.521 26.6074 180.334C26.6074 182.251 27.7949 183.417 29.3783 183.417C30.9824 183.417 32.2741 182.001 32.2741 180.167C32.2741 178.48 31.1491 177.146 29.5449 177.146ZM29.4824 178.396C30.5658 178.396 30.7116 179.063 30.7116 180.23C30.7116 181.626 30.5033 182.167 29.4408 182.167C28.3783 182.167 28.1491 181.563 28.1491 180.292C28.1491 178.896 28.4199 178.396 29.4824 178.396Z" fill="white"/>
<path d="M34.9792 178.23L34.8542 177.251L32.6875 177.313V178.251L33.5833 178.48V182.126L32.6875 182.376V183.313H36.1667V182.376L35.0833 182.105V179.146C35.2708 178.938 35.625 178.459 36.25 178.459L36.3958 179.251H37.4792L37.5417 177.501L37.4792 177.667C37.4792 177.667 36.8958 177.146 36.375 177.146C35.6458 177.146 34.875 177.792 34.9167 177.751L34.9792 178.23Z" fill="white"/>
<path d="M39.9382 178.209L39.8132 177.251L37.6465 177.313V178.251L38.5423 178.48V182.126L37.6465 182.376V183.313H40.7507V182.396L40.0423 182.146V179.167C40.2923 178.813 40.7923 178.459 41.3548 178.459C41.9382 178.459 42.0215 178.563 42.0215 179.376V182.146L41.3132 182.396V183.313H44.209V182.396L43.5215 182.146V179.167C43.8132 178.751 44.2923 178.459 44.7923 178.459C45.3965 178.459 45.4798 178.563 45.4798 179.376V182.146L44.7923 182.396V183.313H47.7923V182.396L46.9798 182.126V179.271C46.9798 178.105 46.2923 177.146 45.1257 177.146C44.1465 177.146 43.1048 178.001 43.1882 177.917C43.1048 177.709 42.4173 177.146 41.6465 177.146C40.7715 177.146 39.8132 177.834 39.8757 177.771L39.9382 178.209Z" fill="white"/>
<path d="M48.4759 177.771L48.5384 179.313H49.6009L49.8092 178.313L49.7467 178.459C49.7467 178.459 50.0176 178.355 50.6634 178.355C51.3092 178.355 51.4551 178.48 51.4551 179.105V179.771H50.8301C49.3301 179.771 48.1426 180.396 48.1426 181.626C48.1426 182.626 48.9551 183.417 49.9759 183.417C50.7259 183.417 51.5176 182.876 51.6217 182.751L51.7884 183.334L53.8092 183.251V182.313L52.9551 182.105V179.001C52.9551 177.771 52.0176 177.146 50.7676 177.146C49.8717 177.146 48.8509 177.917 48.8509 177.917L48.4759 177.771ZM50.9342 180.855H51.4551V181.501L51.8301 181.667C51.8301 181.667 51.0384 182.167 50.2467 182.167C49.7676 182.167 49.6842 182.042 49.6842 181.563C49.6842 180.917 49.8717 180.855 50.9342 180.855Z" fill="white"/>
<path d="M56.4818 177.501V175.709L54.9818 176.001V177.334L53.8984 177.438V178.521H54.9818V181.667C54.9818 182.855 55.7943 183.417 56.4193 183.417C56.9609 183.417 57.5859 183.188 58.1693 182.751L57.7109 181.855C57.1901 182.126 57.0651 182.188 56.7943 182.188C56.5026 182.188 56.4818 182.23 56.4818 181.73V178.521H58.0234V177.313H56.4818V177.501Z" fill="white"/>
<path d="M59.0273 175.688C59.0273 176.167 59.5273 176.646 59.944 176.646C60.2565 176.646 60.8607 176.167 60.8607 175.688C60.8607 175.167 60.3815 174.751 59.944 174.751C59.569 174.751 59.0273 175.209 59.0273 175.688ZM60.7357 182.251V177.251L58.3398 177.313V178.251L59.2357 178.48V182.126L58.3398 182.376V183.313H61.5482V182.396L60.7357 182.126V182.251Z" fill="white"/>
<path d="M64.8516 177.146C63.2474 177.146 61.9141 178.521 61.9141 180.334C61.9141 182.251 63.1016 183.417 64.6849 183.417C66.2891 183.417 67.5807 182.001 67.5807 180.167C67.5807 178.48 66.4557 177.146 64.8516 177.146ZM64.7891 178.396C65.8724 178.396 66.0182 179.063 66.0182 180.23C66.0182 181.626 65.8099 182.167 64.7474 182.167C63.6849 182.167 63.4557 181.563 63.4557 180.292C63.4557 178.896 63.7266 178.396 64.7891 178.396Z" fill="white"/>
<path d="M70.2858 178.209L70.1608 177.251L67.9941 177.313V178.251L68.89 178.48V182.126L67.9941 182.376V183.313H71.0983V182.396L70.39 182.146V179.105L70.3275 179.251C70.3275 179.251 70.8275 178.459 71.7233 178.459C72.4316 178.459 72.4733 178.626 72.4733 179.376V182.146L71.765 182.396V183.313H74.765V182.396L73.9733 182.126V179.271C73.9733 178.105 73.2233 177.146 72.0566 177.146C71.1608 177.146 70.1608 177.855 70.2233 177.792L70.2858 178.209Z" fill="white"/>
<path d="M79.9993 178.105V177.251L77.166 177.313V178.23L77.7285 178.417L79.0827 183.313H80.6243L81.7077 179.813L81.9368 178.771H81.4993L81.7493 179.813L82.8327 183.313H84.3743L85.666 178.376L86.3535 178.271V177.251L83.4993 177.313V178.251L84.2285 178.396L83.3952 182.146H83.8327L82.4577 177.126L81.1243 177.334L79.666 182.146H80.1035L79.2285 178.376L79.9993 178.271V178.105Z" fill="white"/>
<path d="M87.082 175.688C87.082 176.167 87.582 176.646 87.9987 176.646C88.3112 176.646 88.9154 176.167 88.9154 175.688C88.9154 175.167 88.4362 174.751 87.9987 174.751C87.6237 174.751 87.082 175.209 87.082 175.688ZM88.7904 182.251V177.251L86.3945 177.313V178.251L87.2904 178.48V182.126L86.3945 182.376V183.313H89.6029V182.396L88.7904 182.126V182.251Z" fill="white"/>
<path d="M92.2799 182.251V174.688L89.8633 174.751V175.688L90.7591 175.917V182.126L89.8633 182.376V183.313H93.2383V182.376L92.2799 182.126V182.251Z" fill="white"/>
<path d="M95.6081 182.251V174.688L93.1914 174.751V175.688L94.0872 175.917V182.126L93.1914 182.376V183.313H96.5664V182.376L95.6081 182.126V182.251Z" fill="white"/>
<path d="M101.368 178.23L101.243 177.251L99.0762 177.313V178.251L99.972 178.48V182.126L99.0762 182.376V183.313H102.555V182.376L101.472 182.105V179.146C101.66 178.938 102.014 178.459 102.639 178.459L102.785 179.251H103.868L103.93 177.501L103.868 177.667C103.868 177.667 103.285 177.146 102.764 177.146C102.035 177.146 101.264 177.792 101.305 177.751L101.368 178.23Z" fill="white"/>
<path d="M105.37 180.646L109.058 180.626L109.204 180.563C109.204 180.563 109.329 180.126 109.329 179.855C109.329 178.251 108.412 177.146 106.87 177.146C105.329 177.146 104.037 178.626 104.037 180.334C104.037 182.105 105.1 183.417 106.808 183.417C108.1 183.417 109.245 182.48 109.245 182.48V182.188L108.87 181.646V181.917C108.87 181.917 107.995 182.167 106.912 182.167C105.995 182.167 105.579 181.626 105.579 180.646H105.37ZM107.975 179.438H105.641C105.704 178.834 105.954 178.376 106.808 178.376C107.662 178.376 107.745 178.834 107.745 179.438H107.975Z" fill="white"/>
<path d="M112.089 178.209L111.964 177.251L109.797 177.313V178.251L110.693 178.48V182.126L109.797 182.376V183.313H112.901V182.396L112.193 182.146V179.167C112.443 178.813 112.943 178.459 113.505 178.459C114.089 178.459 114.172 178.563 114.172 179.376V182.146L113.464 182.396V183.313H116.359V182.396L115.672 182.146V179.167C115.964 178.751 116.443 178.459 116.943 178.459C117.547 178.459 117.63 178.563 117.63 179.376V182.146L116.943 182.396V183.313H119.943V182.396L119.13 182.126V179.271C119.13 178.105 118.443 177.146 117.276 177.146C116.297 177.146 115.255 178.001 115.339 177.917C115.255 177.709 114.568 177.146 113.797 177.146C112.922 177.146 111.964 177.834 112.026 177.771L112.089 178.209Z" fill="white"/>
<path d="M120.624 177.771L120.687 179.313H121.749L121.958 178.313L121.895 178.459C121.895 178.459 122.166 178.355 122.812 178.355C123.458 178.355 123.604 178.48 123.604 179.105V179.771H122.979C121.479 179.771 120.291 180.396 120.291 181.626C120.291 182.626 121.104 183.417 122.124 183.417C122.874 183.417 123.666 182.876 123.77 182.751L123.937 183.334L125.958 183.251V182.313L125.104 182.105V179.001C125.104 177.771 124.166 177.146 122.916 177.146C122.02 177.146 120.999 177.917 120.999 177.917L120.624 177.771ZM123.083 180.855H123.604V181.501L123.979 181.667C123.979 181.667 123.187 182.167 122.395 182.167C121.916 182.167 121.833 182.042 121.833 181.563C121.833 180.917 122.02 180.855 123.083 180.855Z" fill="white"/>
<path d="M126.963 175.688C126.963 176.167 127.463 176.646 127.88 176.646C128.192 176.646 128.796 176.167 128.796 175.688C128.796 175.167 128.317 174.751 127.88 174.751C127.505 174.751 126.963 175.209 126.963 175.688ZM128.671 182.251V177.251L126.275 177.313V178.251L127.171 178.48V182.126L126.275 182.376V183.313H129.484V182.396L128.671 182.126V182.251Z" fill="white"/>
<path d="M132.141 178.209L132.016 177.251L129.85 177.313V178.251L130.745 178.48V182.126L129.85 182.376V183.313H132.954V182.396L132.245 182.146V179.105L132.183 179.251C132.183 179.251 132.683 178.459 133.579 178.459C134.287 178.459 134.329 178.626 134.329 179.376V182.146L133.62 182.396V183.313H136.62V182.396L135.829 182.126V179.271C135.829 178.105 135.079 177.146 133.912 177.146C133.016 177.146 132.016 177.855 132.079 177.792L132.141 178.209Z" fill="white"/>
<path d="M140.417 181.209H139.458V182.98L139.833 183.126C139.833 183.126 140.375 183.417 141.354 183.417C142.646 183.417 143.917 182.626 143.917 181.396C143.917 179.563 140.938 180.001 140.938 178.855C140.938 178.313 141.146 178.355 141.688 178.355C142.208 178.355 142.688 178.438 142.688 178.438L142.333 178.271L142.542 179.313H143.604L143.667 177.667L143.583 177.813C143.583 177.813 142.458 177.146 141.625 177.146C140.521 177.146 139.438 177.896 139.438 179.021C139.438 180.959 142.417 180.417 142.417 181.584C142.417 182.23 142.083 182.209 141.438 182.209C140.854 182.209 140.688 182.48 140.688 182.48L140.75 182.313L140.604 181.209H140.417Z" fill="white"/>
<path d="M145.732 180.646L149.419 180.626L149.565 180.563C149.565 180.563 149.69 180.126 149.69 179.855C149.69 178.251 148.773 177.146 147.232 177.146C145.69 177.146 144.398 178.626 144.398 180.334C144.398 182.105 145.461 183.417 147.169 183.417C148.461 183.417 149.607 182.48 149.607 182.48V182.188L149.232 181.646V181.917C149.232 181.917 148.357 182.167 147.273 182.167C146.357 182.167 145.94 181.626 145.94 180.646H145.732ZM148.336 179.438H146.003C146.065 178.834 146.315 178.376 147.169 178.376C148.023 178.376 148.107 178.834 148.107 179.438H148.336Z" fill="white"/>
<path d="M154.328 179.417H155.224L155.286 177.771L155.224 177.917C155.224 177.917 154.224 177.146 153.266 177.146C151.557 177.146 150.266 178.584 150.266 180.292C150.266 182.105 151.391 183.417 153.141 183.417C154.328 183.417 155.432 182.521 155.432 182.521V182.23L155.057 181.584V181.876C155.057 181.876 154.266 182.167 153.266 182.167C152.245 182.167 151.807 181.626 151.807 180.167C151.807 178.834 152.182 178.396 153.203 178.396C153.745 178.396 154.307 178.459 154.307 178.459L153.932 178.313L154.141 179.417H154.328Z" fill="white"/>
<path d="M161.477 182.251V177.251L159.06 177.313V178.251L159.977 178.48V181.459L160.331 181.626C160.331 181.626 159.56 182.105 158.643 182.105C157.956 182.105 157.893 181.938 157.893 181.209V177.251L155.477 177.313V178.251L156.393 178.48V181.313C156.393 182.48 157.143 183.417 158.331 183.417C159.206 183.417 160.185 182.73 160.143 182.771L160.206 183.334L162.372 183.251V182.313L161.477 182.105V182.251Z" fill="white"/>
<path d="M164.93 178.23L164.805 177.251L162.639 177.313V178.251L163.535 178.48V182.126L162.639 182.376V183.313H166.118V182.376L165.035 182.105V179.146C165.222 178.938 165.576 178.459 166.201 178.459L166.347 179.251H167.43L167.493 177.501L167.43 177.667C167.43 177.667 166.847 177.146 166.326 177.146C165.597 177.146 164.826 177.792 164.868 177.751L164.93 178.23Z" fill="white"/>
<path d="M168.933 180.646L172.62 180.626L172.766 180.563C172.766 180.563 172.891 180.126 172.891 179.855C172.891 178.251 171.975 177.146 170.433 177.146C168.891 177.146 167.6 178.626 167.6 180.334C167.6 182.105 168.662 183.417 170.37 183.417C171.662 183.417 172.808 182.48 172.808 182.48V182.188L172.433 181.646V181.917C172.433 181.917 171.558 182.167 170.475 182.167C169.558 182.167 169.141 181.626 169.141 180.646H168.933ZM171.537 179.438H169.204C169.266 178.834 169.516 178.376 170.37 178.376C171.225 178.376 171.308 178.834 171.308 179.438H171.537Z" fill="white"/>
<path d="M173.629 182.48C173.629 182.959 174.108 183.417 174.546 183.417C174.9 183.417 175.441 182.959 175.441 182.48C175.441 182.001 174.962 181.521 174.546 181.521C174.171 181.521 173.629 182.001 173.629 182.48Z" fill="white"/>
<path d="M362.661 47.2031H298.484V32H362.661V47.2031Z" fill="#F68334"/>
<path d="M307.139 41.125L306.931 40.0417H305.848V41.6875L306.264 41.8542C306.264 41.8542 306.91 42.25 307.743 42.25C308.868 42.25 310.077 41.4583 310.077 40.25C310.077 38.4583 307.202 38.9167 307.202 37.7083C307.202 37.3125 307.285 37.1667 308.014 37.1667C308.452 37.1667 309.035 37.2292 309.035 37.2292L308.598 37.0625L308.952 38.1667H309.889L309.952 36.5625L309.868 36.7292C309.868 36.7292 308.764 36 308.014 36C307.014 36 305.848 36.7083 305.848 37.8333C305.848 39.75 308.743 39.2292 308.743 40.4792C308.743 41.0417 308.368 41.0833 307.785 41.0833C307.264 41.0833 307.056 41.2917 307.056 41.2917L307.139 41.125Z" fill="white"/>
<path d="M312.311 37.7292V36.2708L311.02 36.5417V37.5208L310.207 37.6042V38.5625H311.02V40.8542C311.02 41.75 311.707 42.25 312.186 42.25C312.582 42.25 313.124 42.0417 313.603 41.6875L313.186 40.875C312.707 41.125 312.665 41.1458 312.478 41.1458C312.249 41.1458 312.311 41.2708 312.311 40.8958V38.5625H313.478V37.4792H312.311V37.7292Z" fill="white"/>
<path d="M313.826 37.9167L313.868 39.1667H314.826L314.993 38.3333L314.91 38.5C314.91 38.5 315.076 38.4375 315.555 38.4375C316.035 38.4375 316.055 38.4375 316.055 38.9167V39.3333H315.68C314.555 39.3333 313.576 39.8958 313.576 40.8125C313.576 41.5625 314.264 42.25 315.035 42.25C315.597 42.25 316.243 41.8125 316.222 41.8333L316.326 42.1667L317.993 42.125V41.2708L317.368 41.1042V38.8542C317.368 37.9167 316.555 37.375 315.639 37.375C314.951 37.375 314.243 38.1042 314.243 38.1042L313.826 37.9167ZM315.743 40.3333H316.055V40.7292L316.472 40.8958C316.472 40.8958 315.826 41.125 315.222 41.125C314.868 41.125 314.889 41.125 314.889 40.7708C314.889 40.2917 314.951 40.3333 315.743 40.3333Z" fill="white"/>
<path d="M319.949 38.2708L319.844 37.4375L318.053 37.5V38.3542L318.74 38.5208V41.125L318.053 41.3333V42.1667H320.844V41.3125L320.032 41.1042V38.9792C320.136 38.8542 320.344 38.5208 320.74 38.5208L320.865 39.125H321.824L321.886 37.7292L321.803 37.8958C321.803 37.8958 321.303 37.375 320.907 37.375C320.365 37.375 319.719 37.875 319.886 37.7083L319.949 38.2708Z" fill="white"/>
<path d="M323.712 37.7292V36.2708L322.42 36.5417V37.5208L321.607 37.6042V38.5625H322.42V40.8542C322.42 41.75 323.107 42.25 323.587 42.25C323.982 42.25 324.524 42.0417 325.003 41.6875L324.587 40.875C324.107 41.125 324.066 41.1458 323.878 41.1458C323.649 41.1458 323.712 41.2708 323.712 40.8958V38.5625H324.878V37.4792H323.712V37.7292Z" fill="white"/>
<path d="M326.773 41.4375V42.1667H329.482V41.2708L328.794 41.1042V40.0833H329.065C330.44 40.0833 331.482 39.2083 331.482 37.9583C331.482 36.9583 330.586 36.0833 329.398 36.0833H328.544L326.773 36.125V37L327.461 37.1458V41.1042L326.773 41.2708V41.4375ZM328.794 39.2083V37.2083H329.357C330.023 37.2083 330.128 37.4375 330.128 38.0833C330.128 38.8125 329.961 38.9583 329.065 38.9583H328.794V39.2083Z" fill="white"/>
<path d="M333.39 38.2708L333.286 37.4375L331.494 37.5V38.3542L332.182 38.5208V41.125L331.494 41.3333V42.1667H334.286V41.3125L333.473 41.1042V38.9792C333.577 38.8542 333.786 38.5208 334.182 38.5208L334.307 39.125H335.265L335.327 37.7292L335.244 37.8958C335.244 37.8958 334.744 37.375 334.348 37.375C333.807 37.375 333.161 37.875 333.327 37.7083L333.39 38.2708Z" fill="white"/>
<path d="M337.505 37.375C336.317 37.375 335.213 38.4792 335.213 39.8542C335.213 41.2917 336.192 42.25 337.4 42.25C338.588 42.25 339.63 41.0833 339.63 39.7292C339.63 38.4375 338.713 37.375 337.505 37.375ZM337.463 38.4792C338.275 38.4792 338.296 38.8958 338.296 39.7708C338.296 40.8125 338.234 41.125 337.421 41.125C336.63 41.125 336.567 40.7708 336.567 39.8125C336.567 38.7708 336.671 38.4792 337.463 38.4792Z" fill="white"/>
<path d="M342.919 39.25H343.669L343.711 37.9167L343.648 38.1042C343.648 38.1042 342.836 37.375 342.107 37.375C340.836 37.375 339.773 38.5208 339.773 39.8125C339.773 41.1667 340.711 42.25 342.023 42.25C342.919 42.25 343.794 41.5417 343.794 41.5417V41.2083L343.523 40.7083V41.0625C343.523 41.0625 342.878 41.125 342.107 41.125C341.357 41.125 341.128 40.8125 341.128 39.7292C341.128 38.7292 341.315 38.4792 342.065 38.4792C342.461 38.4792 342.961 38.5 342.961 38.5L342.544 38.3333L342.711 39.25H342.919Z" fill="white"/>
<path d="M344.958 40.1667L347.708 40.1458L347.874 40.0833C347.874 40.0833 347.999 39.6875 347.999 39.4792C347.999 38.2917 347.229 37.375 346.062 37.375C344.916 37.375 343.854 38.5625 343.854 39.8542C343.854 41.1667 344.749 42.25 346.041 42.25C346.999 42.25 347.895 41.5208 347.895 41.5208V41.1667L347.624 40.75V41.1042C347.624 41.1042 346.916 41.125 346.104 41.125C345.416 41.125 345.208 40.8125 345.208 40.1667H344.958ZM346.895 39.0833H345.249C345.27 38.7292 345.395 38.4792 346.041 38.4792C346.666 38.4792 346.645 38.7292 346.645 39.0833H346.895Z" fill="white"/>
<path d="M349.048 40.4167H348.215V41.8333L348.652 42C348.652 42 349.007 42.25 349.736 42.25C350.694 42.25 351.757 41.5625 351.757 40.6458C351.757 39.2708 349.527 39.6042 349.527 38.75C349.527 38.3333 349.569 38.4375 349.986 38.4375C350.382 38.4375 350.798 38.4792 350.798 38.4792L350.382 38.3125L350.548 39.1667H351.527L351.548 37.8542L351.465 38.0208C351.465 38.0208 350.569 37.375 349.944 37.375C349.111 37.375 348.215 38.0208 348.215 38.8542C348.215 40.3125 350.444 39.9167 350.444 40.7708C350.444 41.2708 350.277 41.1667 349.798 41.1667C349.361 41.1667 349.298 41.5 349.298 41.5L349.382 41.3333L349.257 40.4167H349.048Z" fill="white"/>
<path d="M352.8 40.4167H351.967V41.8333L352.404 42C352.404 42 352.758 42.25 353.488 42.25C354.446 42.25 355.508 41.5625 355.508 40.6458C355.508 39.2708 353.279 39.6042 353.279 38.75C353.279 38.3333 353.321 38.4375 353.738 38.4375C354.133 38.4375 354.55 38.4792 354.55 38.4792L354.133 38.3125L354.3 39.1667H355.279L355.3 37.8542L355.217 38.0208C355.217 38.0208 354.321 37.375 353.696 37.375C352.863 37.375 351.967 38.0208 351.967 38.8542C351.967 40.3125 354.196 39.9167 354.196 40.7708C354.196 41.2708 354.029 41.1667 353.55 41.1667C353.113 41.1667 353.05 41.5 353.05 41.5L353.133 41.3333L353.008 40.4167H352.8Z" fill="white"/>
<path fill-rule="evenodd" clip-rule="evenodd" d="M351.818 185.745H350.922V183.479H351.917C352.615 183.479 353.26 183.88 353.26 184.688C353.26 185.594 352.661 185.745 351.818 185.745ZM351.917 182.625H349.823V186.604H351.87C353.51 186.604 354.458 186.25 354.458 184.688C354.458 183.078 353.411 182.625 351.917 182.625ZM363.427 184.089H361.833V183.484H363.479C363.927 183.484 364.125 183.531 364.125 183.786C364.125 184.089 363.974 184.089 363.427 184.089ZM364.078 184.943C364.828 184.839 365.177 184.536 365.177 183.885C365.177 182.974 364.729 182.625 363.63 182.625H360.745V186.604H361.839V184.943H362.885L364.031 186.604H365.224L364.078 184.943ZM343.818 182.625V186.604H344.865V184.182L346.958 186.604H348.203V182.625H347.156V185.089L345.063 182.625H343.818ZM333.552 182.625V186.604H337.484V185.745L334.646 185.698V182.625H333.552ZM338.609 186.604H342.448V185.745H339.755V184.891H342V184.083H339.755V183.479H342.448V182.625H338.609V186.604ZM355.682 182.625V186.604L359.469 186.552V185.745H356.781V184.891H359.073V184.083H356.781V183.479H359.469V182.625H355.682ZM342.458 180.24L342.755 178.833L343.104 180.24H342.458ZM343.198 178.068H342.354L341.354 181.646H342.083L342.302 180.839H343.198L343.422 181.646H344.198L343.198 178.068ZM337.443 180.333C337.443 180.99 337.396 181.141 336.995 181.141C336.646 181.141 336.547 180.937 336.547 180.281V179.427C336.547 178.771 336.599 178.573 337.047 178.573C337.396 178.573 337.443 178.672 337.443 179.375V180.333ZM337.995 181.141C338.146 180.839 338.193 180.635 338.193 180.182V179.427C338.193 178.573 337.995 177.969 337 177.969C336.104 177.969 335.802 178.469 335.802 179.375V180.333C335.802 181.542 336.5 181.594 338.542 181.594L338.594 181.339L337.995 181.141ZM356.125 180.688C356.125 181.24 356.474 181.693 357.271 181.693C357.922 181.693 358.516 181.24 358.516 180.688C358.516 179.828 356.922 179.427 356.922 178.87C356.922 178.672 357.125 178.568 357.323 178.568C357.62 178.568 357.771 178.771 357.922 179.073L358.417 178.87C358.37 178.37 358.021 177.964 357.271 177.964C356.677 177.964 356.177 178.266 356.177 178.87C356.177 179.88 357.771 180.13 357.771 180.786C357.771 181.036 357.62 181.141 357.323 181.141C357.021 181.141 356.823 180.938 356.724 180.583L356.125 180.688ZM352.37 180.333C352.37 180.938 352.219 181.141 351.922 181.141C351.521 181.141 351.469 180.885 351.469 180.385V179.276C351.469 178.823 351.521 178.521 351.922 178.521C352.318 178.521 352.37 178.87 352.37 179.276V180.333ZM351.922 177.964C351.177 177.964 350.729 178.37 350.729 179.323V180.484C350.729 181.344 350.974 181.693 351.922 181.693C352.87 181.693 353.12 181.292 353.12 180.333V179.224C353.12 178.318 352.87 177.964 351.922 177.964ZM362.786 180.333C362.786 181.391 363.083 181.693 364.078 181.693C364.854 181.693 365.078 181.328 365.078 180.938V179.776H364.031V180.333H364.38V180.734C364.38 181.036 364.281 181.188 364.031 181.188C363.531 181.188 363.484 180.839 363.484 180.333V179.526C363.484 178.922 363.531 178.521 364.031 178.521C364.38 178.521 364.578 178.771 364.63 179.125L365.125 178.922C365.078 178.318 364.677 177.964 363.984 177.964C362.984 177.964 362.786 178.521 362.786 179.276V180.333ZM353.427 178.068V180.13C353.427 181.339 353.635 181.729 354.677 181.729C355.479 181.729 355.771 181.292 355.771 180.234V178.068H355.073V180.13C355.073 180.938 355.021 181.141 354.625 181.141C354.224 181.141 354.177 180.839 354.177 180.078V178.068H353.427ZM360.083 178.068V181.646H360.682V179.224L361.526 181.646H362.427V178.068H361.828V180.281L361.031 178.068H360.083ZM338.911 178.068V180.234C338.911 181.24 339.01 181.693 340.005 181.693C341.151 181.693 341.203 181.141 341.203 180.13V178.068H340.505V180.182C340.505 180.885 340.406 181.089 340.057 181.089C339.656 181.089 339.609 180.885 339.609 180.078V178.068H338.911ZM347.969 178.068V181.646H348.667V180.031H349.516V181.646H350.208V178.068H349.516V179.427H348.667V178.068H347.969ZM333.5 178.068V181.646H335.292V181.089H334.198V180.083H335.193V179.578H334.198V178.62H335.292V178.068H333.5ZM344.51 178.068V181.646H346.156V181.089H345.109V178.068H344.51ZM358.885 181.641H359.531V178.068H358.885V181.641ZM328.453 185.391H319.76V180.542L324.156 177.964L328.453 180.542V185.391ZM324.156 176.5L317.328 180.385V181.792H318.375V186.62H329.766V181.792H330.828V180.427L324.156 176.5Z" fill="white"/>
<path fill-rule="evenodd" clip-rule="evenodd" d="M321.818 181.198H326.365V182.385H321.818V181.198ZM321.818 182.974H326.365V184.161H321.818V182.974Z" fill="white"/>
</g>
<defs>
<clipPath id="clip0_1_5">
<rect width="384" height="192" fill="white"/>
</clipPath>
</defs>
</svg>
